<svg xmlns="http://www.w3.org/2000/svg" width="1600" height="1200" viewBox="0 0 1600 1200">
  <defs>
    <linearGradient id="bg" x1="0" x2="1" y1="0" y2="1"><stop offset="0" stop-color="#f7efe2"/><stop offset="1" stop-color="#d8c6a5"/></linearGradient>
    <filter id="shadow" x="-20%" y="-20%" width="140%" height="140%"><feDropShadow dx="0" dy="16" stdDeviation="18" flood-color="#6b5b45" flood-opacity="0.28"/></filter>
    <style>
      .serif{font-family: Georgia, 'Times New Roman', serif}.sans{font-family: Arial, Helvetica, sans-serif}.sage{fill:#6f7f68}.ink{fill:#2f312b}.gold{fill:#c39a4a}.paper{fill:#fffaf0}
    </style>
  </defs>
  <rect width="1600" height="1200" fill="url(#bg)"/>
  <circle cx="1350" cy="180" r="210" fill="#efe0c4" opacity="0.55"/>
  <circle cx="180" cy="980" r="260" fill="#87977b" opacity="0.16"/>

  <g filter="url(#shadow)">
    <rect x="185" y="130" width="585" height="830" rx="28" class="paper"/>
    <rect x="225" y="175" width="505" height="92" rx="16" fill="#6f7f68"/>
    <text x="477" y="212" text-anchor="middle" class="sans" font-size="25" fill="#fffaf0" font-weight="700">DIGITAL PRODUCT SELLER</text>
    <text x="477" y="247" text-anchor="middle" class="sans" font-size="23" fill="#fffaf0">LAUNCH PLANNER</text>
    <text x="245" y="342" class="serif ink" font-size="48" font-weight="700">From idea</text>
    <text x="245" y="397" class="serif ink" font-size="48" font-weight="700">to listing</text>
    <text x="245" y="450" class="sans" font-size="24" fill="#5b5e54">Score ideas • plan SEO • price with confidence</text>
    <line x1="245" y1="500" x2="700" y2="500" stroke="#d8c6a5" stroke-width="3"/>
    <g class="sans" font-size="27" fill="#2f312b">
      <text x="285" y="570">✓ Product idea scorecard</text>
      <text x="285" y="630">✓ Listing SEO tracker</text>
      <text x="285" y="690">✓ Pricing calculator</text>
      <text x="285" y="750">✓ 30-day content calendar</text>
      <text x="285" y="810">✓ AI prompt pack</text>
    </g>
    <rect x="245" y="860" width="300" height="48" rx="24" fill="#c39a4a"/>
    <text x="395" y="893" text-anchor="middle" class="sans" font-size="24" fill="#fffaf0" font-weight="700">INSTANT DOWNLOAD</text>
  </g>

  <g filter="url(#shadow)">
    <rect x="830" y="250" width="560" height="390" rx="28" fill="#2f312b"/>
    <rect x="865" y="285" width="490" height="300" rx="12" fill="#fffaf0"/>
    <rect x="900" y="325" width="420" height="42" rx="8" fill="#6f7f68" opacity="0.92"/>
    <rect x="900" y="395" width="125" height="125" rx="14" fill="#efe0c4"/>
    <rect x="1048" y="395" width="125" height="125" rx="14" fill="#efe0c4"/>
    <rect x="1195" y="395" width="125" height="125" rx="14" fill="#efe0c4"/>
    <text x="1110" y="354" text-anchor="middle" class="sans" font-size="24" fill="#fffaf0" font-weight="700">SELLER DASHBOARD</text>
    <text x="963" y="464" text-anchor="middle" class="serif" font-size="46" fill="#c39a4a">19</text>
    <text x="1110" y="464" text-anchor="middle" class="serif" font-size="46" fill="#c39a4a">13</text>
    <text x="1258" y="464" text-anchor="middle" class="serif" font-size="46" fill="#c39a4a">30</text>
    <rect x="780" y="640" width="660" height="42" rx="21" fill="#5a4d3a"/>
  </g>

  <g filter="url(#shadow)">
    <rect x="900" y="700" width="410" height="260" rx="22" fill="#fffaf0" transform="rotate(-5 1105 830)"/>
    <text x="1105" y="778" text-anchor="middle" class="serif ink" font-size="36" transform="rotate(-5 1105 778)">30-Day Content</text>
    <text x="1105" y="825" text-anchor="middle" class="serif ink" font-size="36" transform="rotate(-5 1105 825)">Calendar</text>
    <g transform="rotate(-5 1105 830)">
      <rect x="965" y="855" width="280" height="18" rx="9" fill="#d8c6a5"/>
      <rect x="965" y="890" width="230" height="18" rx="9" fill="#d8c6a5"/>
    </g>
  </g>

  <text x="800" y="1070" text-anchor="middle" class="sans" font-size="38" fill="#2f312b" font-weight="700">Printable Workbook + CSV Trackers + Notion Template + AI Prompts</text>
</svg>
